<svg width="101" height="16" viewBox="0 0 101 16" fill="none" xmlns="http://www.w3.org/2000/svg">
<path d="M40.3973 15.8579H34.3356L33.6178 15.1402V9.11944L34.3356 8.4017H39.86L40.5778 9.11944V12.0273L39.86 12.745H34.8441V14.6316H40.3973V15.8579ZM34.8441 11.5146H39.3474V9.628H34.8441V11.5146Z" fill="black"/>
<path d="M90.3474 15.8702H84.1052L83.3874 15.1525V11.5228H89.117V9.6403H83.3341V8.41401H89.6256L90.3433 9.13174V15.8702H90.3474ZM84.6137 14.6439H89.117V12.7491H84.6137V14.6439Z" fill="black"/>
<path d="M100.355 15.9317H99.1283V9.6403H95.0926V15.9317H93.8663V8.41401H99.641L100.355 9.13174V15.9317Z" fill="black"/>
<path d="M47.7715 8.4017H44.2731V9.628H47.7715V8.4017Z" fill="black"/>
<path d="M47.7715 15.8579H44.7119L43.9942 15.1402V7.22872H45.2205V14.6316H47.7715V15.8579Z" fill="black"/>
<path d="M62.3353 15.9317H61.109V9.11944L61.8227 8.4017H66.289V9.628H62.3353V15.9317Z" fill="black"/>
<path d="M23.8977 15.8907H22.6714V7.33126L23.3891 6.61353H30.3901L31.1078 7.33126V11.248L30.3901 11.9658H23.8977V15.8907ZM23.8977 10.7395H29.8774V7.83982H23.8977V10.7395Z" fill="black"/>
<path d="M72.3467 15.8907V7.33126L73.0644 6.61353H80.0654L80.7831 7.33126V11.248L80.0654 11.9658H73.5771V15.8907H72.3467ZM73.573 10.7395H79.5527V7.83982H73.573V10.7395Z" fill="black"/>
<path d="M57.5819 15.8579H51.5201L50.8024 15.1402V9.11944L51.5201 8.4017H57.0446L57.7623 9.11944V12.0273L57.0446 12.745H52.0287V14.6316H57.5819V15.8579ZM52.0287 11.5146H56.5319V9.628H52.0287V11.5146Z" fill="black"/>
<path d="M40.3973 15.8579H34.3356L33.6178 15.1402V9.11944L34.3356 8.4017H39.86L40.5778 9.11944V12.0273L39.86 12.745H34.8441V14.6316H40.3973V15.8579ZM34.8441 11.5146H39.3474V9.628H34.8441V11.5146Z" stroke="black" stroke-width="0.0833511" stroke-miterlimit="10"/>
<path d="M90.3474 15.8702H84.1052L83.3874 15.1525V11.5228H89.117V9.6403H83.3341V8.41401H89.6256L90.3433 9.13174V15.8702H90.3474ZM84.6137 14.6439H89.117V12.7491H84.6137V14.6439Z" stroke="black" stroke-width="0.0833511" stroke-miterlimit="10"/>
<path d="M100.355 15.9317H99.1283V9.6403H95.0926V15.9317H93.8663V8.41401H99.641L100.355 9.13174V15.9317Z" stroke="black" stroke-width="0.0833511" stroke-miterlimit="10"/>
<path d="M47.7715 8.4017H44.2731V9.628H47.7715V8.4017Z" stroke="black" stroke-width="0.0833511" stroke-miterlimit="10"/>
<path d="M47.7715 15.8579H44.7119L43.9942 15.1402V7.22872H45.2205V14.6316H47.7715V15.8579Z" stroke="black" stroke-width="0.0833511" stroke-miterlimit="10"/>
<path d="M62.3353 15.9317H61.109V9.11944L61.8227 8.4017H66.289V9.628H62.3353V15.9317Z" stroke="black" stroke-width="0.0833511" stroke-miterlimit="10"/>
<path d="M23.8977 15.8907H22.6714V7.33126L23.3891 6.61353H30.3901L31.1078 7.33126V11.248L30.3901 11.9658H23.8977V15.8907ZM23.8977 10.7395H29.8774V7.83982H23.8977V10.7395Z" stroke="black" stroke-width="0.0833511" stroke-miterlimit="10"/>
<path d="M72.3467 15.8907V7.33126L73.0644 6.61353H80.0654L80.7831 7.33126V11.248L80.0654 11.9658H73.5771V15.8907H72.3467ZM73.573 10.7395H79.5527V7.83982H73.573V10.7395Z" stroke="black" stroke-width="0.0833511" stroke-miterlimit="10"/>
<path d="M57.5819 15.8579H51.5201L50.8024 15.1402V9.11944L51.5201 8.4017H57.0446L57.7623 9.11944V12.0273L57.0446 12.745H52.0287V14.6316H57.5819V15.8579ZM52.0287 11.5146H56.5319V9.628H52.0287V11.5146Z" stroke="black" stroke-width="0.0833511" stroke-miterlimit="10"/>
<path d="M16.0034 16.0034V0H0L16.0034 16.0034Z" fill="black"/>
</svg>
