<svg width="190" height="81" viewBox="0 0 190 81" fill="none" xmlns="http://www.w3.org/2000/svg">
<path d="M179.792 0.5L189.5 10.208V80.5H10.208C8.32529 78.6173 6.84013 77.1311 5.35449 75.6455C3.86872 74.1597 2.38295 72.674 0.5 70.791V10.208L0.714844 9.99316C0.722174 9.98583 0.729986 9.979 0.737305 9.97168C0.744604 9.96438 0.751501 9.95651 0.758789 9.94922L0.891602 9.81641C0.898906 9.8091 0.90677 9.80221 0.914062 9.79492C0.921369 9.78762 0.928252 9.77976 0.935547 9.77246C0.942851 9.76516 0.950715 9.75827 0.958008 9.75098C0.965285 9.7437 0.972227 9.73578 0.979492 9.72852L1.08789 9.62012C1.09511 9.61289 1.10314 9.60584 1.11035 9.59863C1.14317 9.56582 1.12044 9.58756 1.15332 9.55469L1.26074 9.44727C1.26775 9.44026 1.27523 9.43375 1.28223 9.42676C1.28935 9.41963 1.2966 9.41239 1.30371 9.40527C1.31071 9.39827 1.31723 9.39078 1.32422 9.38379L1.40918 9.29883C1.4289 9.27911 1.43249 9.27649 1.45215 9.25684C1.47841 9.23058 1.46792 9.24008 1.49414 9.21387L1.59863 9.10938C1.6056 9.10241 1.61316 9.09582 1.62012 9.08887C1.62706 9.08192 1.63369 9.07432 1.64062 9.06738L1.74414 8.96387C1.78523 8.92277 1.78626 8.92272 1.82715 8.88184C1.834 8.87498 1.84081 8.8672 1.84766 8.86035L1.88867 8.81934C1.89535 8.81266 1.90251 8.80647 1.90918 8.7998L1.9502 8.75879C1.95687 8.75211 1.96306 8.74495 1.96973 8.73828L2.76465 7.94336C2.77098 7.93703 2.77786 7.93113 2.78418 7.9248C2.79053 7.91845 2.79639 7.91162 2.80273 7.90527L2.8418 7.86621C2.84815 7.85986 2.85498 7.854 2.86133 7.84766C2.90083 7.80815 2.97558 7.73243 3.01465 7.69336L3.05273 7.65527C3.05907 7.64894 3.06594 7.64305 3.07227 7.63672C3.0786 7.63038 3.08449 7.62352 3.09082 7.61719C3.09715 7.61086 3.10403 7.60496 3.11035 7.59863C3.11667 7.59231 3.12259 7.58541 3.12891 7.5791L3.29883 7.40918C3.3051 7.40291 3.31209 7.39689 3.31836 7.39062C3.4196 7.28938 3.51731 7.1907 3.61719 7.09082L3.83887 6.86914C3.85089 6.85712 3.86398 6.84501 3.87598 6.83301C3.882 6.82698 3.88753 6.82047 3.89355 6.81445L3.94922 6.75879C3.95521 6.7528 3.96178 6.7472 3.96777 6.74121C3.9738 6.73519 3.97933 6.72868 3.98535 6.72266L4.56641 6.1416C4.59891 6.1091 4.56957 6.13942 4.60254 6.10645C4.60853 6.10045 4.61413 6.09388 4.62012 6.08789L4.70996 5.99805C4.72213 5.98588 4.77023 5.93876 4.78223 5.92676C4.87758 5.8314 4.97332 5.73469 5.06836 5.63965C5.07422 5.63379 5.08008 5.62793 5.08594 5.62207C5.0919 5.61611 5.09853 5.61045 5.10449 5.60449C5.11042 5.59856 5.11614 5.59186 5.12207 5.58594L5.21094 5.49707C5.21689 5.49112 5.22354 5.48545 5.22949 5.47949C5.23544 5.47354 5.24112 5.46689 5.24707 5.46094L5.33594 5.37207C5.34189 5.36612 5.34854 5.36044 5.35449 5.35449C5.37898 5.33 5.47257 5.23544 5.49707 5.21094C5.50491 5.20309 5.52554 5.18344 5.5332 5.17578C5.53913 5.16986 5.54485 5.16315 5.55078 5.15723L5.67578 5.03223C5.69662 5.01139 5.69093 5.01805 5.71191 4.99707C5.71787 4.99112 5.72354 4.98447 5.72949 4.97852L5.7832 4.9248C5.80685 4.90116 5.79546 4.91352 5.81934 4.88965C5.84762 4.86137 5.8263 4.88171 5.85449 4.85352C5.86047 4.84754 5.86707 4.84191 5.87305 4.83594C5.87902 4.82997 5.88465 4.82335 5.89062 4.81738C5.89648 4.81152 5.90234 4.80566 5.9082 4.7998C5.91416 4.79385 5.9208 4.78818 5.92676 4.78223C5.93876 4.77023 5.98586 4.72215 5.99805 4.70996L6.08789 4.62012C6.09388 4.61413 6.10046 4.60853 6.10645 4.60254C6.1153 4.59369 6.13249 4.57551 6.1416 4.56641L6.3584 4.34961C6.39382 4.31419 6.39617 4.31281 6.43164 4.27734C6.43353 4.27546 6.46588 4.2431 6.46777 4.24121C6.47377 4.23522 6.47935 4.22865 6.48535 4.22266L7.14648 3.56152C7.15269 3.55532 7.15981 3.54918 7.16602 3.54297C7.1925 3.51648 7.21366 3.49435 7.24023 3.46777C7.28981 3.4182 7.3407 3.36829 7.39062 3.31836C7.39689 3.31209 7.40291 3.3051 7.40918 3.29883L7.77051 2.9375C7.81223 2.89577 7.80556 2.90343 7.84766 2.86133C7.91915 2.78983 7.93 2.77801 8.00195 2.70605L8.27637 2.43164C8.28296 2.42505 8.29028 2.41871 8.29688 2.41211C8.30345 2.40554 8.30983 2.39818 8.31641 2.3916C8.34282 2.36519 8.36897 2.33904 8.39551 2.3125C8.40215 2.30586 8.40937 2.29962 8.41602 2.29297C8.42266 2.28632 8.42889 2.27912 8.43555 2.27246L8.51562 2.19238C8.52229 2.18571 8.52946 2.17953 8.53613 2.17285C8.5428 2.16619 8.54899 2.15902 8.55566 2.15234L8.73828 1.96973C8.74495 1.96306 8.75211 1.95687 8.75879 1.9502L8.7998 1.90918C8.87527 1.83371 8.88774 1.82027 8.96387 1.74414L9.23535 1.47266C9.24234 1.46567 9.24984 1.45914 9.25684 1.45215C9.28186 1.42713 9.27374 1.43427 9.29883 1.40918C9.31426 1.39375 9.36856 1.33945 9.38379 1.32422C9.39067 1.31733 9.42034 1.28864 9.42676 1.28223C9.45648 1.2525 9.43925 1.26876 9.46875 1.23926L9.72852 0.979492C9.73578 0.972231 9.7437 0.965281 9.75098 0.958008C9.75827 0.950715 9.76516 0.942851 9.77246 0.935547C9.77976 0.928248 9.78761 0.921373 9.79492 0.914062C9.80222 0.906766 9.8091 0.89891 9.81641 0.891602C9.82371 0.884295 9.83155 0.877435 9.83887 0.870117C9.84619 0.862799 9.85302 0.854986 9.86035 0.847656L10.208 0.5H179.792Z" fill="white" stroke="black"/>
</svg>
