<svg width="608" height="322" viewBox="0 0 608 322" fill="none" xmlns="http://www.w3.org/2000/svg">
<path d="M572.793 0.5L607.5 35.207V286.083L572.793 320.79H0.5V35.207L2.31445 33.3926C2.34003 33.367 2.36607 33.3419 2.3916 33.3164C2.41717 33.2908 2.44225 33.2648 2.46777 33.2393L2.77344 32.9336C2.79869 32.9083 2.8244 32.8836 2.84961 32.8584C2.87485 32.8332 2.8996 32.8074 2.9248 32.7822L4.27148 31.4355C4.29608 31.411 4.32115 31.3869 4.3457 31.3623C4.37026 31.3378 4.39443 31.3126 4.41895 31.2881L4.8584 30.8486C4.88265 30.8244 4.90742 30.8006 4.93164 30.7764C4.9559 30.7521 4.97968 30.7273 5.00391 30.7031L5.43848 30.2686C5.46242 30.2446 5.48683 30.2212 5.51074 30.1973C5.53468 30.1733 5.55813 30.1489 5.58203 30.125L7.20996 28.4971C7.2332 28.4738 7.25706 28.4509 7.28027 28.4277C7.30348 28.4045 7.32644 28.3806 7.34961 28.3574L7.97168 27.7354C7.99461 27.7124 8.01812 27.6899 8.04102 27.667C8.0639 27.6441 8.08651 27.6205 8.10938 27.5977L10.2666 25.4404C10.2886 25.4184 10.311 25.397 10.333 25.375C10.355 25.353 10.3765 25.3306 10.3984 25.3086L11.3848 24.3223C11.4064 24.3006 11.4286 24.2795 11.4502 24.2578C11.4718 24.2362 11.493 24.214 11.5146 24.1924L11.9697 23.7373C11.9913 23.7157 12.0136 23.6944 12.0352 23.6729C12.0567 23.6513 12.078 23.629 12.0996 23.6074L12.293 23.4141C12.3145 23.3925 12.3369 23.3711 12.3584 23.3496L12.5518 23.1562C12.5731 23.1349 12.5939 23.1131 12.6152 23.0918L13.001 22.7061C13.0223 22.6847 13.0441 22.6639 13.0654 22.6426C13.0868 22.6213 13.1076 22.5994 13.1289 22.5781L13.2568 22.4502C13.2781 22.4289 13.3 22.408 13.3213 22.3867C13.3426 22.3654 13.3635 22.3435 13.3848 22.3223L13.7031 22.0039C13.7243 21.9827 13.7464 21.9616 13.7676 21.9404C13.7888 21.9192 13.8099 21.8972 13.8311 21.876L14.9072 20.7998C14.9282 20.7788 14.9497 20.7583 14.9707 20.7373C14.9917 20.7163 15.0122 20.6948 15.0332 20.6738L15.2852 20.4219C15.3061 20.4009 15.3277 20.3803 15.3486 20.3594C15.3696 20.3384 15.3902 20.3169 15.4111 20.2959L16.1016 19.6055C16.1225 19.5846 16.1441 19.5639 16.165 19.543C16.1859 19.5221 16.2067 19.5004 16.2275 19.4795L16.54 19.167C16.5609 19.1461 16.5826 19.1254 16.6035 19.1045C16.6244 19.0836 16.6452 19.0619 16.666 19.041L19.041 16.666C19.0619 16.6452 19.0836 16.6244 19.1045 16.6035C19.1254 16.5826 19.1461 16.5609 19.167 16.54L19.4795 16.2275C19.5004 16.2067 19.5221 16.1859 19.543 16.165C19.5639 16.1441 19.5846 16.1225 19.6055 16.1016L20.2959 15.4111C20.3169 15.3902 20.3384 15.3696 20.3594 15.3486C20.3803 15.3277 20.4009 15.3061 20.4219 15.2852L20.6738 15.0332C20.6948 15.0122 20.7163 14.9917 20.7373 14.9707C20.7583 14.9497 20.7788 14.9282 20.7998 14.9072L21.876 13.8311C21.8972 13.8099 21.9192 13.7888 21.9404 13.7676C21.9616 13.7464 21.9827 13.7243 22.0039 13.7031L22.3223 13.3848C22.3435 13.3635 22.3654 13.3426 22.3867 13.3213C22.408 13.3 22.4289 13.2781 22.4502 13.2568L22.5781 13.1289C22.5994 13.1076 22.6213 13.0868 22.6426 13.0654C22.6639 13.0441 22.6847 13.0223 22.7061 13.001L23.0918 12.6152C23.1131 12.5939 23.1349 12.5731 23.1562 12.5518L23.3496 12.3584C23.3711 12.3369 23.3925 12.3145 23.4141 12.293L23.6074 12.0996C23.629 12.078 23.6513 12.0567 23.6729 12.0352C23.6944 12.0136 23.7157 11.9913 23.7373 11.9697L24.1924 11.5146C24.214 11.493 24.2362 11.4718 24.2578 11.4502C24.2795 11.4286 24.3006 11.4064 24.3223 11.3848L25.3086 10.3984C25.3306 10.3765 25.353 10.355 25.375 10.333C25.397 10.311 25.4184 10.2886 25.4404 10.2666L27.5977 8.10938C27.6205 8.08651 27.6441 8.0639 27.667 8.04102C27.6899 8.01812 27.7124 7.99461 27.7354 7.97168L28.3574 7.34961C28.3806 7.32644 28.4045 7.30348 28.4277 7.28027C28.4509 7.25706 28.4738 7.2332 28.4971 7.20996L30.125 5.58203C30.1489 5.55813 30.1733 5.53468 30.1973 5.51074C30.2212 5.48683 30.2446 5.46242 30.2686 5.43848L30.7031 5.00391C30.7273 4.97968 30.7521 4.9559 30.7764 4.93164C30.8006 4.90742 30.8244 4.88265 30.8486 4.8584L31.2881 4.41895C31.3126 4.39443 31.3378 4.37026 31.3623 4.3457C31.3869 4.32115 31.411 4.29608 31.4355 4.27148L32.7822 2.9248C32.8074 2.8996 32.8332 2.87485 32.8584 2.84961C32.8836 2.8244 32.9083 2.79869 32.9336 2.77344L33.2393 2.46777C33.2648 2.44225 33.2908 2.41717 33.3164 2.3916C33.3419 2.36607 33.367 2.34003 33.3926 2.31445L35.207 0.5H572.793Z" fill="white" stroke="black"/>
</svg>
